<?xml version="1.0" encoding="UTF-8"?>
<svg width="18px" height="16px" viewBox="0 0 18 16" version="1.1"
     xmlns="http://www.w3.org/2000/svg">
    <title>Icon/file-tray-full/fill Copy@3x</title>
    <g id="Page-1" stroke="none" stroke-width="1" fill="none" fill-rule="evenodd">
        <g id="Icon/file-tray-full/fill-Copy" transform="translate(0.2637, 0.553)" fill="#D6D8E3" fill-rule="nonzero">
            <path d="M17.4867195,7.99609486 L16.2367197,2.06601577 C15.9953135,0.772265704 15.065626,0 13.7500012,0 L3.75000234,0 C3.09375248,0 2.53906512,0.183203235 2.10547143,0.544531389 C1.67187774,0.905859542 1.38789336,1.41601581 1.26250275,2.06367211 L0.0125030349,7.99609486 C0.00405795454,8.03854072 0,8.08172303 0,8.12500065 L0,12.5 C0,13.1630423 0.263395153,13.7989266 0.732236007,14.2677676 C1.20107686,14.7366086 1.83696142,15 2.5,15 L15,15 C15.6630422,15 16.2989263,14.7366086 16.7677672,14.2677676 C17.2366081,13.7989266 17.5,13.1630423 17.5,12.5 L17.5,8.12500065 C17.5,8.0816969 17.4954269,8.03851433 17.4867195,7.99609486 Z M2.48672145,2.31640655 C2.48672145,2.3125003 2.48672145,2.30898443 2.48672145,2.3054688 C2.6253933,1.58554686 3.02617424,1.25078122 3.7480491,1.25078122 L13.7500012,1.25078122 C14.4769543,1.25078122 14.877735,1.58476574 15.0105475,2.30195332 C15.0105475,2.30703145 15.0125009,2.31210955 15.0132821,2.31718767 L16.0652348,7.31250046 C16.0700017,7.33525999 16.0696287,7.35879687 16.0641428,7.3813939 C16.058657,7.40399093 16.048197,7.42507828 16.0335251,7.44311869 C16.0188533,7.4611591 16.0003398,7.4756977 15.979335,7.48567343 C15.9583301,7.49564915 15.9353638,7.50081021 15.9121105,7.50078142 L11.2500017,7.50078142 C11.0852042,7.49995004 10.9268154,7.56456708 10.8096271,7.68043698 C10.6924389,7.79630688 10.6260348,7.9539541 10.6250018,8.1187505 C10.6250018,8.61603146 10.427458,9.09294532 10.0758273,9.44457606 C9.72419666,9.7962068 9.24728232,9.99375065 8.75000149,9.99375065 C8.25272066,9.99375065 7.77580691,9.7962068 7.42417626,9.44457606 C7.07254561,9.09294532 6.87500181,8.61603146 6.87500181,8.1187505 C6.87459246,8.03708441 6.85810144,7.95629822 6.82647052,7.88100544 C6.79483961,7.80571266 6.74868804,7.737388 6.69065123,7.67993154 C6.63261442,7.62247507 6.56382882,7.57701319 6.48822197,7.54614056 C6.41261512,7.51526792 6.33166798,7.49958918 6.25000192,7.5 L1.58789339,7.5 C1.56464003,7.50002939 1.54167348,7.49486774 1.52066861,7.48489201 C1.49966373,7.47491628 1.48115002,7.46037828 1.46647816,7.44233787 C1.45180629,7.42429745 1.44134598,7.40320952 1.43586015,7.38061248 C1.43037432,7.35801545 1.43000153,7.33447858 1.43476849,7.31171904 L2.48672145,2.31640655 Z"
                  id="Vector"></path>
            <path d="M13.1260633,3.75012514 L4.37606438,3.75012514 C4.21030409,3.75012514 4.05133304,3.684277 3.93412282,3.56706676 C3.8169126,3.44985653 3.75106446,3.29088545 3.75106446,3.12512514 C3.75106446,2.95936483 3.8169126,2.80039376 3.93412282,2.68318352 C4.05133304,2.56597329 4.21030409,2.50012514 4.37606438,2.50012514 L13.1260633,2.50012514 C13.2918236,2.50012514 13.4507953,2.56597329 13.5680055,2.68318352 C13.6852157,2.80039376 13.7510645,2.95936483 13.7510645,3.12512514 C13.7510645,3.29088545 13.6852157,3.44985653 13.5680055,3.56706676 C13.4507953,3.684277 13.2918236,3.75012514 13.1260633,3.75012514 Z"
                  id="Vector"></path>
            <path d="M13.7513951,6.25021274 L3.75139532,6.25021274 C3.58563501,6.25021274 3.42666395,6.18436459 3.30945372,6.06715436 C3.19224348,5.94994413 3.12639534,5.79097305 3.12639534,5.62521274 C3.12639534,5.45945243 3.19224348,5.30048136 3.30945372,5.18327112 C3.42666395,5.06606089 3.58563501,5.00021274 3.75139532,5.00021274 L13.7513951,5.00021274 C13.9171554,5.00021274 14.076127,5.06606089 14.1933373,5.18327112 C14.3105475,5.30048136 14.376395,5.45945243 14.376395,5.62521274 C14.376395,5.79097305 14.3105475,5.94994413 14.1933373,6.06715436 C14.076127,6.18436459 13.9171554,6.25021274 13.7513951,6.25021274 Z"
                  id="Vector"></path>
        </g>
    </g>
</svg>