<?xml version="1.0" encoding="UTF-8"?>
<svg width="17px" height="17px" viewBox="0 0 17 17" version="1.1" xmlns="http://www.w3.org/2000/svg" xmlns:xlink="http://www.w3.org/1999/xlink">
    <title>style=fill</title>
    <g id="Icons" stroke="none" stroke-width="1" fill="none" fill-rule="evenodd">
        <g id="Icons_Instance" transform="translate(-382, -54)" fill="#D6D8E3" fill-rule="nonzero">
            <g id="albums" transform="translate(378.0994, 29.9945)">
                <g id="Vector" transform="translate(5.5071, 26.019)">
                    <path d="M10.0021945,1.00021783 L3.00067084,1.00021783 C2.86803373,1.00021783 2.74082916,0.947527841 2.64704057,0.853739228 C2.55325197,0.759950616 2.50056197,0.632746054 2.50056197,0.500108917 C2.50056197,0.367471781 2.55325197,0.240267219 2.64704057,0.146478606 C2.74082916,0.0526899932 2.86803373,0 3.00067084,0 L10.0021945,0 C10.1348316,0 10.2620366,0.0526899932 10.3558252,0.146478606 C10.4496138,0.240267219 10.5023033,0.367471781 10.5023033,0.500108917 C10.5023033,0.632746054 10.4496138,0.759950616 10.3558252,0.853739228 C10.2620366,0.947527841 10.1348316,1.00021783 10.0021945,1.00021783 Z"></path>
                    <path d="M11.0023855,2.50056486 L2.00042521,2.50056486 C1.86778807,2.50056486 1.74058343,2.44787491 1.64679481,2.35408625 C1.5530062,2.26029759 1.50031622,2.1330929 1.50031622,2.0004557 C1.50031622,1.8678185 1.5530062,1.74061393 1.64679481,1.64682527 C1.74058343,1.55303661 1.86778807,1.50034654 2.00042521,1.50034654 L11.0023855,1.50034654 C11.1350226,1.50034654 11.2622276,1.55303661 11.3560163,1.64682527 C11.4498049,1.74061393 11.5024944,1.8678185 11.5024944,2.0004557 C11.5024944,2.1330929 11.4498049,2.26029759 11.3560163,2.35408625 C11.2622276,2.44787491 11.1350226,2.50056486 11.0023855,2.50056486 Z"></path>
                    <path d="M11.6003388,12.0026541 L1.402493,12.0026541 C1.03065572,12.0022404 0.67416636,11.8543453 0.411237531,11.5914164 C0.148308703,11.3284876 0.000413658533,10.9719986 0,10.6001613 L0,4.40318636 C0.000413658533,4.03134906 0.148308703,3.67485979 0.411237531,3.41193096 C0.67416636,3.14900214 1.03065572,3.00110699 1.402493,3.00069333 L11.6003388,3.00069333 C11.9721761,3.00110699 12.328666,3.14900214 12.5915948,3.41193096 C12.8545237,3.67485979 13.0024188,4.03134906 13.0028324,4.40318636 L13.0028324,10.6001613 C13.0024188,10.9719986 12.8545237,11.3284876 12.5915948,11.5914164 C12.328666,11.8543453 11.9721761,12.0022404 11.6003388,12.0026541 Z"></path>
                </g>
            </g>
        </g>
    </g>
</svg>