<?xml version="1.0" encoding="UTF-8"?>
<svg width="21px" height="18px" viewBox="0 0 21 18" version="1.1"
     xmlns="http://www.w3.org/2000/svg">
    <title>Icon/images/fill Copy@3x</title>
    <g id="Page-1" stroke="none" stroke-width="1" fill="none" fill-rule="evenodd">
        <g id="Icon/images/fill-Copy" transform="translate(0.0383, 0.3163)" fill="#D6D8E3" fill-rule="nonzero">
            <path d="M17.5893281,3.12456617 L5.5467466,3.12456617 C4.21862126,3.12456617 3.12487098,4.19917564 3.12487098,5.52026939 L3.12487098,15.1038637 C3.12487098,16.4249574 4.21862126,17.4995663 5.5467466,17.4995663 L17.5779997,17.4995663 C18.906125,17.4995663 19.9998753,16.47691 19.9998753,15.1558163 L19.9998753,5.52026939 C19.9998753,4.19917564 18.9186253,3.12456617 17.5893281,3.12456617 Z M14.5756557,5.5206598 C14.9305704,5.52282019 15.2768952,5.63003887 15.5709475,5.82879079 C15.8649997,6.0275427 16.093607,6.30892543 16.2279327,6.63744582 C16.3622583,6.96596621 16.3962855,7.32690829 16.3257225,7.67474427 C16.2551594,8.02258025 16.0831664,8.3417289 15.8314389,8.5919334 C15.5797114,8.84213791 15.2595248,9.01219048 14.9112669,9.08064143 C14.563009,9.14909237 14.2022803,9.11287532 13.874581,8.9765586 C13.5468816,8.84024188 13.2668914,8.60993171 13.0699276,8.31467882 C12.8729637,8.01942592 12.7678482,7.67245597 12.7678416,7.31753482 C12.7697032,6.83961528 12.9611025,6.38195803 13.3000326,6.04500545 C13.6389626,5.70805286 14.0977333,5.51933455 14.5756557,5.52026939 L14.5756557,5.5206598 Z M5.53073082,16.3019099 C4.86666815,16.3019099 4.36432455,15.7648004 4.36432455,15.1042535 L4.36432455,12.5718321 L7.89791917,9.41597239 C8.24336572,9.11210655 8.69117468,8.95051591 9.15105708,8.96378175 C9.61093948,8.97704759 10.0486889,9.16418386 10.3760449,9.48745744 L12.8229199,11.9136288 L8.40885687,16.3015189 L5.53073082,16.3019099 Z M18.749875,15.1038637 C18.7498238,15.2612921 18.7187457,15.4171669 18.6584176,15.5625775 C18.5980894,15.707988 18.5096944,15.8400826 18.398285,15.9513106 C18.2868756,16.0625386 18.154636,16.150719 18.0091273,16.2108102 C17.8636186,16.2709013 17.707694,16.3017242 17.5502656,16.3015189 L10.1170603,16.3015189 L14.6904984,11.7573788 C15.015053,11.4835906 15.4256882,11.3328945 15.850299,11.3317515 C16.2749098,11.3306086 16.6863503,11.4790917 17.0123741,11.7511286 L18.749875,13.225738 L18.749875,15.1038637 Z"
                  id="Vector"></path>
            <path d="M15,0 L2.5,0 C1.83695872,0 1.20107399,0.263392128 0.732233066,0.732233034 C0.263392139,1.20107394 -1.13686838e-13,1.83695864 -1.13686838e-13,2.5 L-1.13686838e-13,12.5 C0.000457233211,13.0542674 0.184780915,13.5927239 0.524089104,14.0309969 C0.863397294,14.46927 1.3385166,14.782594 1.87499997,14.9218741 L1.87499997,4.68749973 C1.87499997,3.94157841 2.17131604,3.22620798 2.69876208,2.69876196 C3.22620811,2.17131594 3.94157858,1.87499989 4.68749992,1.87499989 L17.4218747,1.87499989 C17.2825946,1.33851654 16.9692706,0.863397332 16.5309975,0.524089157 C16.0927244,0.184780982 15.5542679,0.000457233191 15,0 Z"
                  id="Vector"></path>
        </g>
    </g>
</svg>