<?xml version="1.0" encoding="UTF-8"?>
<svg width="22px" height="22px" viewBox="0 0 22 22" version="1.1"
     xmlns="http://www.w3.org/2000/svg">
    <title>Icon/wifi/fill Copy@3x</title>
    <g id="Page-1" stroke="none" stroke-width="1" fill="none" fill-rule="evenodd">
        <g id="Icon/wifi/fill-Copy"
           transform="translate(10.8881, 11.2432) rotate(45) translate(-10.8881, -11.2432)translate(2.5718, 4.8361)"
           fill="#D6D8E3" fill-rule="nonzero">
            <path d="M11.8543683,8.08057228 C10.8817629,7.21600822 9.62569273,6.73844076 8.3243733,6.73844076 C7.02305388,6.73844076 5.76698234,7.21600822 4.79437698,8.08057228 C4.71219255,8.15168691 4.64495628,8.23842183 4.5965734,8.33573918 C4.54819051,8.43305654 4.51962497,8.53901742 4.51253615,8.64746704 C4.50544733,8.75591666 4.51997636,8.86469364 4.55527937,8.96748113 C4.59058238,9.07026862 4.64595577,9.16501723 4.71818362,9.24622504 C4.79041148,9.32743284 4.87805426,9.3934817 4.97602184,9.44053408 C5.07398942,9.48758645 5.18032949,9.51470507 5.28886565,9.52031554 C5.3974018,9.52592601 5.5059712,9.50991666 5.60826813,9.47321639 C5.71056506,9.43651611 5.80455091,9.37985615 5.88476703,9.3065285 C6.55697801,8.70909675 7.42504449,8.37909582 8.3243733,8.37909582 C9.22370211,8.37909582 10.0917673,8.70909675 10.7639782,9.3065285 C10.9266537,9.45112317 11.1401066,9.52517325 11.3573794,9.51238818 C11.5746523,9.49960312 11.7779472,9.4010304 11.9225419,9.23835491 C12.0671366,9.07567941 12.1411867,8.86222658 12.1284016,8.64495375 C12.1156165,8.42768093 12.0170438,8.22438603 11.8543683,8.07979134 L11.8543683,8.08057228 Z"
                  id="Vector"></path>
            <path d="M8.32301255,3.37089744 C6.12056742,3.36786898 3.99988475,4.20496571 2.39332458,5.71153074 C2.31198326,5.78439307 2.24600873,5.87276341 2.19927002,5.97145902 C2.15253131,6.07015462 2.12596925,6.17718903 2.12114144,6.28628541 C2.11631363,6.39538179 2.13331712,6.50434364 2.1711551,6.60678199 C2.20899309,6.70922035 2.26690393,6.80307357 2.34149118,6.88283616 C2.41607844,6.96259875 2.50584075,7.02666505 2.60551447,7.07127983 C2.70518818,7.11589462 2.81276676,7.14015964 2.92194151,7.14265044 C3.03111625,7.14514124 3.13968957,7.12580788 3.24129428,7.08578522 C3.34289898,7.04576257 3.43548994,6.98585636 3.51363723,6.90957838 C4.81811791,5.6899926 6.53721882,5.01154387 8.32301255,5.01154387 C10.1088063,5.01154387 11.827907,5.6899926 13.1323877,6.90957838 C13.210535,6.98585636 13.3031262,7.04576257 13.4047309,7.08578522 C13.5063356,7.12580788 13.6149083,7.14514124 13.7240831,7.14265044 C13.8332578,7.14015964 13.9408373,7.11589462 14.040511,7.07127983 C14.1401848,7.02666505 14.2299462,6.96259875 14.3045334,6.88283616 C14.3791207,6.80307357 14.4370324,6.70922035 14.4748704,6.60678199 C14.5127084,6.50434364 14.5297113,6.39538179 14.5248835,6.28628541 C14.5200557,6.17718903 14.4934936,6.07015462 14.4467549,5.97145902 C14.4000162,5.87276341 14.3340413,5.78439307 14.2527,5.71153074 C12.6461398,4.20496571 10.5254577,3.36786898 8.32301255,3.37089744 L8.32301255,3.37089744 Z"
                  id="Vector"></path>
            <path d="M16.359397,3.06386333 C14.1477843,1.09056832 11.2874283,1.37695579e-13 8.32345778,1.37695579e-13 C5.35948724,1.37695579e-13 2.49913073,1.09056832 0.287518097,3.06386333 C0.204399183,3.13486379 0.136309416,3.22176109 0.0872500112,3.31944934 C0.0381906065,3.4171376 0.00915117105,3.52364626 0.00183787059,3.63271659 C-0.00547542987,3.74178691 0.00908502864,3.85121906 0.0446636727,3.9545824 C0.0802423168,4.05794575 0.136121414,4.15315501 0.209017566,4.23461647 C0.281913718,4.31607793 0.370356507,4.38214812 0.469148849,4.42894438 C0.567941191,4.47574065 0.675090284,4.50231923 0.784300115,4.50711829 C0.893509945,4.51191735 1.0025775,4.49484009 1.10509389,4.45689003 C1.20761029,4.41893997 1.30150753,4.3608824 1.38126829,4.28612921 C3.29206216,2.58197909 5.76293808,1.64021413 8.32326228,1.64021413 C10.8835865,1.64021413 13.3544618,2.58197909 15.2652557,4.28612921 C15.4274418,4.43116953 15.6406021,4.50584132 15.857844,4.49371737 C16.0750859,4.48159343 16.2786141,4.38366696 16.4236544,4.22148079 C16.5686947,4.05929462 16.643367,3.8461343 16.6312431,3.62889235 C16.6191192,3.41165041 16.5211921,3.20812225 16.359006,3.06308191 L16.359397,3.06386333 Z"
                  id="Vector"></path>
            <path d="M9.57532799,11.5632985 C9.57532799,12.2541624 9.01527215,12.8142183 8.32440819,12.8142183 C7.63354423,12.8142183 7.07348839,12.2541624 7.07348839,11.5632985 C7.07348839,10.8724345 7.63354423,10.3123787 8.32440819,10.3123787 C9.01527215,10.3123787 9.57532799,10.8724345 9.57532799,11.5632985 Z"
                  id="Vector"></path>
        </g>
    </g>
</svg>