<?xml version="1.0" encoding="UTF-8"?>
<svg width="18px" height="14px" viewBox="0 0 18 14" version="1.1"
     xmlns="http://www.w3.org/2000/svg">
    <title>Icon/options/fill Copy@3x</title>
    <g id="Page-1" stroke="none" stroke-width="1" fill="none" fill-rule="evenodd">
        <g id="Icon/options/fill-Copy" transform="translate(0.9839, 0.2147)" fill="#C0C2CC" fill-rule="nonzero">
            <g id="Vector">
                <path d="M0.625000149,2.49946725 L9.48242427,2.49946725 C9.61174893,2.86490157 9.85115847,3.18127018 10.1677017,3.40502827 C10.4842443,3.62878637 10.8623594,3.74893361 11.2500021,3.74893361 C11.6376459,3.74893361 12.015761,3.62878637 12.3323037,3.40502827 C12.6488475,3.18127018 12.888257,2.86490157 13.0175817,2.49946725 L15.6250034,2.49946725 C15.7907636,2.49946725 15.9497363,2.4336189 16.066946,2.31640863 C16.1841569,2.19919837 16.2500033,2.0402273 16.2500033,1.87446695 C16.2500033,1.70870661 16.1841569,1.54973539 16.066946,1.43252512 C15.9497363,1.31531486 15.7907636,1.24946665 15.6250034,1.24946665 L13.0175817,1.24946665 C12.888257,0.884032265 12.6488475,0.567663611 12.3323037,0.343905519 C12.015761,0.12014739 11.6376459,0 11.2500021,0 C10.8623594,0 10.4842443,0.12014739 10.1677017,0.343905519 C9.85115847,0.567663611 9.61174893,0.884032265 9.48242427,1.24946665 L0.625000149,1.24946665 C0.459239802,1.24946665 0.30026853,1.31531486 0.183058283,1.43252512 C0.0658480166,1.54973539 0,1.70870661 0,1.87446695 C0,2.0402273 0.0658480166,2.19919837 0.183058283,2.31640863 C0.30026853,2.4336189 0.459239802,2.49946725 0.625000149,2.49946725 Z"></path>
                <path d="M15.6250034,11.2489008 L13.0175817,11.2489008 C12.888257,10.8834664 12.6488475,10.5670991 12.3323037,10.343341 C12.015761,10.1195829 11.6376459,9.99943507 11.2500021,9.99943507 C10.8623594,9.99943507 10.4842443,10.1195829 10.1677017,10.343341 C9.85115847,10.5670991 9.61174893,10.8834664 9.48242427,11.2489008 L0.625000149,11.2489008 C0.459239802,11.2489008 0.30026853,11.314749 0.183058283,11.4319593 C0.0658480166,11.5491696 0,11.7081415 0,11.8739019 C0,12.0396622 0.0658480166,12.1986342 0.183058283,12.3158444 C0.30026853,12.4330547 0.459239802,12.4989017 0.625000149,12.4989017 L9.48242427,12.4989017 C9.61174893,12.864336 9.85115847,13.1807047 10.1677017,13.4044627 C10.4842443,13.6282208 10.8623594,13.7483687 11.2500021,13.7483687 C11.6376459,13.7483687 12.015761,13.6282208 12.3323037,13.4044627 C12.6488475,13.1807047 12.888257,12.864336 13.0175817,12.4989017 L15.6250034,12.4989017 C15.7907636,12.4989017 15.9497363,12.4330547 16.066946,12.3158444 C16.1841569,12.1986342 16.2500033,12.0396622 16.2500033,11.8739019 C16.2500033,11.7081415 16.1841569,11.5491696 16.066946,11.4319593 C15.9497363,11.314749 15.7907636,11.2489008 15.6250034,11.2489008 Z"></path>
                <path d="M15.6250034,6.24941213 L6.7675796,6.24941213 C6.63825495,5.88397759 6.3988448,5.56760927 6.08230218,5.3438511 C5.76575896,5.12009294 5.38764443,4.99994577 5,4.99994577 C4.61235795,4.99994577 4.23424343,5.12009294 3.9177005,5.3438511 C3.60115728,5.56760927 3.36174744,5.88397759 3.23242278,6.24941213 L0.625000149,6.24941213 C0.459239802,6.24941213 0.30026853,6.31526033 0.183058283,6.4324706 C0.0658480166,6.54968101 0,6.70865268 0,6.87441317 C0,7.04017352 0.0658480166,7.19914488 0.183058283,7.31635515 C0.30026853,7.43356542 0.459239802,7.49941302 0.625000149,7.49941302 L3.23242278,7.49941302 C3.36174744,7.86484734 3.60115728,8.18121595 3.9177005,8.40497405 C4.23424343,8.62873214 4.61235795,8.74887997 5,8.74887997 C5.38764443,8.74887997 5.76575896,8.62873214 6.08230218,8.40497405 C6.3988448,8.18121595 6.63825495,7.86484734 6.7675796,7.49941302 L15.6250034,7.49941302 C15.7907636,7.49941302 15.9497363,7.43356542 16.066946,7.31635515 C16.1841569,7.19914488 16.2500033,7.04017352 16.2500033,6.87441317 C16.2500033,6.70865268 16.1841569,6.54968101 16.066946,6.4324706 C15.9497363,6.31526033 15.7907636,6.24941213 15.6250034,6.24941213 Z"></path>
            </g>
        </g>
    </g>
</svg>