<?xml version="1.0" encoding="UTF-8"?>
<svg width="14px" height="18px" viewBox="0 0 14 18" version="1.1"
     xmlns="http://www.w3.org/2000/svg">
    <title>Icon/bookmark/fill Copy@3x</title>
    <g id="Page-1" stroke="none" stroke-width="1" fill="none" fill-rule="evenodd">
        <g id="Icon/bookmark/fill-Copy" transform="translate(0.7886, 0.2711)" fill="#D6D8E3" fill-rule="nonzero">
            <path d="M11.8750029,17.5 C11.722141,17.5004449 11.5744147,17.4448565 11.4597684,17.3437467 L6.25000268,12.7113258 L1.0402364,17.3437467 C0.950080248,17.4238886 0.838658784,17.4762284 0.719416176,17.4944511 C0.600173567,17.5126737 0.478205415,17.4960008 0.36822861,17.4464431 C0.258251804,17.3968854 0.164965739,17.3165603 0.0996268216,17.2151616 C0.0342879042,17.113763 -0.000311946962,16.9956233 1.13686838e-13,16.8749968 L1.13686838e-13,2.5 C0.00072589088,1.83718058 0.264350486,1.20171628 0.733034646,0.733032236 C1.2017188,0.264348188 1.8371831,0.000723771453 2.5,2.27373675e-13 L10,2.27373675e-13 C10.662822,0.000723771453 11.2982866,0.264348188 11.7669707,0.733032236 C12.2356549,1.20171628 12.4992792,1.83718058 12.5,2.5 L12.5,16.8749968 C12.5,17.0407571 12.4341554,17.1997287 12.3169452,17.3169389 C12.1997349,17.4341491 12.0407633,17.5 11.8750029,17.5 Z"
                  id="Vector"></path>
        </g>
    </g>
</svg>