<?xml version="1.0" encoding="UTF-8"?>
<svg width="18px" height="18px" viewBox="0 0 18 18" version="1.1"
     xmlns="http://www.w3.org/2000/svg">
    <title>Icon/extension-puzzle/fill Copy@3x</title>
    <g id="Page-1" stroke="none" stroke-width="1" fill="none" fill-rule="evenodd">
        <g id="Icon/extension-puzzle/fill-Copy" transform="translate(0.3276, 0.299)" fill="#D6D8E3" fill-rule="nonzero">
            <path d="M12.2320322,17.5003963 L9.45312532,17.5003963 C9.26664498,17.5003963 9.08780183,17.4263178 8.95594031,17.2944563 C8.8240788,17.1625947 8.7500003,16.9837516 8.7500003,16.7972712 L8.7500003,15.7148496 C8.75052781,15.5485999 8.71716661,15.3839862 8.65195304,15.2310601 C8.58673947,15.0781339 8.49104164,14.9401033 8.37070315,14.8253956 C8.06679688,14.5289112 7.62539066,14.3644589 7.16406251,14.375787 C6.32968745,14.3953182 5.62500019,15.1296932 5.62500019,15.9796933 L5.62500019,16.7972712 C5.62500019,16.9837516 5.5509211,17.1625947 5.41905958,17.2944563 C5.28719806,17.4263178 5.10835551,17.5003963 4.92187517,17.5003963 L2.17265643,17.5003963 C1.88733914,17.5003963 1.60481542,17.4441987 1.34121661,17.3350125 C1.0776178,17.2258262 0.838106136,17.0657901 0.636356346,16.8640403 C0.228904233,16.4565882 0,15.9039643 0,15.32774 L0,12.5785208 C0,12.3920404 0.0740790951,12.2131973 0.205940611,12.0813358 C0.337802127,11.9494742 0.516644678,11.8753957 0.703125024,11.8753957 L1.7855469,11.8753957 C2.14335941,11.8753957 2.49140645,11.7222707 2.76562521,11.4457082 C2.91818451,11.2919307 3.03882887,11.1095026 3.12061648,10.9089218 C3.2024041,10.708341 3.24372026,10.4935667 3.24218761,10.2769576 C3.23046886,9.44922308 2.54921899,8.75039484 1.75429708,8.75039484 L0.703125024,8.75039484 C0.516644678,8.75039484 0.337802127,8.67631574 0.205940611,8.54445421 C0.0740790951,8.41259269 0,8.23375013 0,8.04726977 L0,5.29805056 C0,5.01273325 0.0561974682,4.73021011 0.165383672,4.46661128 C0.274569877,4.20301245 0.434606556,3.96350093 0.636356346,3.76175112 C1.04380846,3.35429898 1.59643216,3.12539459 2.17265643,3.12539459 L4.33046892,3.12539459 C4.41334908,3.12539459 4.49283492,3.09247051 4.55144004,3.03386539 C4.61004516,2.97526027 4.64296893,2.89577472 4.64296893,2.81289456 L4.64296893,2.5597694 C4.64296846,2.21983544 4.71067561,1.88330605 4.84213905,1.56982169 C4.97360249,1.25633733 5.16618858,0.972177425 5.40865797,0.733926144 C5.65112737,0.495674863 5.93862327,0.308104569 6.25436625,0.182162336 C6.57010924,0.0562201029 6.90777467,-0.00557134269 7.24765623,0.000394231249 C8.63398447,0.0246129838 9.76171884,1.18711319 9.76171884,2.59141023 L9.76171884,2.81289456 C9.76171884,2.89577472 9.79464262,2.97526027 9.85324774,3.03386539 C9.91185286,3.09247051 9.9913387,3.12539459 10.0742189,3.12539459 L12.2320322,3.12539459 C12.5134509,3.12539459 12.792113,3.18082424 13.0521099,3.28851851 C13.3121069,3.39621278 13.5483467,3.55406233 13.7473397,3.7530554 C13.9463328,3.95204847 14.1041826,4.18828767 14.2118769,4.44828464 C14.3195711,4.70828162 14.3750005,4.98694457 14.3750005,5.26836327 L14.3750005,7.4261762 C14.3750005,7.50905636 14.4079243,7.58854161 14.4665294,7.64714673 C14.5251345,7.70575185 14.6046203,7.73867623 14.6875005,7.73867623 L14.9085944,7.73867623 C16.3375008,7.73867623 17.5,8.87148884 17.5,10.2636764 C17.5,11.6937547 16.3519542,12.8574277 14.9406259,12.8574277 L14.6875005,12.8574277 C14.6046203,12.8574277 14.5251345,12.8903514 14.4665294,12.9489566 C14.4079243,13.0075617 14.3750005,13.0870475 14.3750005,13.1699277 L14.3750005,15.3574279 C14.3750005,15.6388466 14.3195711,15.9175087 14.2118769,16.1775056 C14.1041826,16.4375026 13.9463328,16.6737424 13.7473397,16.8727355 C13.5483467,17.0717285 13.3121069,17.2295784 13.0521099,17.3372727 C12.792113,17.4449669 12.5134509,17.5003963 12.2320322,17.5003963 L12.2320322,17.5003963 Z"
                  id="Vector"></path>
        </g>
    </g>
</svg>