<?xml version="1.0" encoding="UTF-8"?>
<svg width="20px" height="18px" viewBox="0 0 20 18" version="1.1"
     xmlns="http://www.w3.org/2000/svg">
    <title>Icon/hammer/fill Copy@3x</title>
    <g id="Page-1" stroke="none" stroke-width="1" fill="none" fill-rule="evenodd">
        <g id="Icon/hammer/fill-Copy" transform="translate(0.7229, 0.3093)" fill="#D6D8E3" fill-rule="nonzero">
            <path d="M10.3187716,8.23382027 L9.29884973,7.21350749 C9.06523411,6.97983215 8.74859958,6.84816107 8.4181762,6.84727825 C8.08775282,6.84640428 7.7704232,6.9763902 7.5355685,7.20882018 L0.444552564,13.7529627 C0.186349433,13.9963222 0.0168182567,14.3064797 0.00119325647,14.6537454 C-0.00632455516,14.8259766 0.0217425218,14.9979077 0.0836422763,15.1588068 C0.145542031,15.3197059 0.239945371,15.4661173 0.360958838,15.588901 L1.88439623,17.1291375 C1.88520667,17.1301447 1.88612343,17.1310606 1.88713059,17.131871 C2.12254873,17.3665196 2.44107296,17.4987589 2.77345897,17.4998404 L2.81955273,17.4998404 C3.16681837,17.4869498 3.47775578,17.3240586 3.72463078,17.0635116 L10.3144741,10.0049152 C10.4313287,9.88906421 10.5241601,9.75128064 10.5876422,9.59946997 C10.6511244,9.44765929 10.6840088,9.28480914 10.6844116,9.12026034 C10.6848072,8.95571153 10.652714,8.79270271 10.5899692,8.64058579 C10.5272244,8.48846887 10.4350627,8.35023694 10.3187716,8.23382027 L10.3187716,8.23382027 Z"
                  id="Vector"></path>
            <path d="M18.5154957,6.17187743 L18.5033864,6.15976815 L17.164715,4.83476796 C17.0863018,4.75661387 16.9931833,4.69476615 16.8907375,4.65279554 C16.7882917,4.61082492 16.6785479,4.58956242 16.5678401,4.59023628 C16.3884635,4.59040459 16.2136819,4.6469796 16.0682304,4.75195503 C16.0682304,4.73515816 16.070574,4.71875186 16.0717459,4.70429873 C16.089324,4.45039243 16.1166673,4.06679883 15.8686204,3.71914253 C15.5737096,3.32164298 15.2499172,2.94640883 14.8998709,2.59648614 C14.89893,2.59534837 14.897883,2.59430198 14.8967452,2.59336106 C14.3764328,2.08086097 13.2440121,1.11562654 11.5092465,0.408204504 C10.8513444,0.138189765 10.1469648,-0.000483311065 9.43580873,0 C8.20299629,0 7.26549629,0.556251407 6.90651195,0.885938957 C6.70324056,1.08009008 6.51785746,1.29214356 6.35260597,1.51953281 C6.27365693,1.6285055 6.2319869,1.76004871 6.23373617,1.89460256 C6.23559803,2.02915641 6.28078262,2.15953434 6.3626273,2.26634935 C6.44447198,2.37316436 6.55860575,2.45071169 6.68805672,2.48745998 C6.8175077,2.52420827 6.95536197,2.51819488 7.08112136,2.47031411 C7.1906727,2.42936117 7.30259479,2.39505417 7.41627767,2.36757982 C7.65303163,2.31750859 7.89584141,2.30237404 8.13698065,2.32265787 C8.65221499,2.36523601 9.26159007,2.6210956 9.53112132,2.83398626 C9.98815254,3.20156445 10.2080748,3.69687691 10.2444029,4.43906456 C10.2514342,4.58828334 9.94284042,5.14765828 9.46315295,5.78593967 C9.37177755,5.90639486 9.32716327,6.05588977 9.33757789,6.20672232 C9.34799251,6.35755486 9.41272925,6.49949889 9.51979286,6.60625233 L10.8639336,7.95039337 C10.9768823,8.06361191 11.1289341,8.12922616 11.2887952,8.13373133 C11.4486562,8.13823651 11.6041624,8.08128963 11.7233082,7.97461193 C12.1033863,7.63515876 12.682293,7.12343989 12.8846368,6.99804924 C13.1850274,6.81328357 13.3998704,6.77773717 13.4588548,6.77148717 C13.6119177,6.75647709 13.7658921,6.78893536 13.8998707,6.86445553 C13.900537,6.87114269 13.8998049,6.87789548 13.8977202,6.88428421 C13.8956354,6.89067294 13.8922437,6.8965577 13.8877614,6.90156479 L13.8166674,6.96914336 L13.8049491,6.98008082 C13.7263948,7.05834388 13.6641011,7.15137499 13.6216553,7.25381639 C13.5792095,7.3562578 13.55745,7.46608529 13.5576316,7.57697198 C13.5578131,7.68785867 13.5799317,7.7976135 13.6227127,7.89991538 C13.6654937,8.00221725 13.7280916,8.09504411 13.8069018,8.17304954 L15.1451834,9.49765992 C15.2236158,9.57576101 15.3167457,9.63754755 15.419193,9.67945174 C15.5216404,9.72135594 15.6313747,9.74254727 15.7420583,9.74181967 C15.9643231,9.74214002 16.1778291,9.65516602 16.3365896,9.49961257 L18.5045582,7.35820561 C18.5119801,7.35078373 18.5194019,7.34297137 18.5264331,7.33515887 C18.6718751,7.17572923 18.7515909,6.96716283 18.7496001,6.75136881 C18.747533,6.53557479 18.6639096,6.32854416 18.5154957,6.17187743 L18.5154957,6.17187743 Z"
                  id="Vector"></path>
        </g>
    </g>
</svg>