<?xml version="1.0" encoding="UTF-8"?>
<svg width="18px" height="18px" viewBox="0 0 18 18" version="1.1"
     xmlns="http://www.w3.org/2000/svg">
    <title>Icon/layers/fill Copy@3x</title>
    <g id="Page-1" stroke="none" stroke-width="1" fill="none" fill-rule="evenodd">
        <g id="Icon/layers/fill-Copy" transform="translate(0.8859, 0.9446)" fill="#D6D8E3" fill-rule="nonzero">
            <g id="Vector">
                <path d="M8.12500164,8.12500164 C7.59882981,8.12500164 7.07265798,8.03164234 6.66250161,7.84492375 L0.881250079,5.20859469 C0.616796945,5.08828208 0,4.73632949 0,4.07187608 C0,3.40742297 0.616797094,3.05625073 0.882031549,2.93437592 L6.71328265,0.275390682 C7.51679889,-0.0917968941 8.72929875,-0.0917968941 9.53320472,0.275390682 L15.3679726,2.93437592 C15.6332068,3.05507886 16.2500033,3.40703234 16.2500033,4.07187608 C16.2500033,4.73672011 15.6332068,5.08750143 15.3679726,5.20898561 L9.58672162,7.84492375 C9.17734649,8.03164234 8.65117406,8.12500164 8.12500164,8.12500164 Z"></path>
                <path d="M15.3656283,6.98486932 L14.7761749,6.71885328 L9.58984601,9.09151005 C9.17968963,9.27901018 8.65234564,9.37236977 8.12734538,9.37236977 C7.60234572,9.37236977 7.07539205,9.27901018 6.66562659,9.09151005 L1.4761723,6.71885328 L0.881640851,6.98604089 C0.61679702,7.10674405 0,7.46104135 0,8.12510414 C0,8.78916678 0.616796945,9.14385463 0.881250079,9.26455771 L6.66250161,11.9063555 C7.07031424,12.0938553 7.59726732,12.1876056 8.12500164,12.1876056 C8.65273656,12.1876056 9.17734589,12.0938559 9.58750227,11.9067464 L15.3636749,9.26572988 C15.6296909,9.14502679 16.2500033,8.79268239 16.2500033,8.12510414 C16.2500033,7.45752574 15.6339875,7.10674434 15.3656283,6.98486932 Z"></path>
                <path d="M15.3656283,11.0461998 L14.7761749,10.7805758 L9.58984601,13.1508883 C9.17968963,13.3376071 8.65234564,13.4313565 8.12734538,13.4313565 C7.60234572,13.4313565 7.07539205,13.3379978 6.66562659,13.1508883 L1.4761723,10.7805758 L0.881640851,11.0477622 C0.61679702,11.1684654 0,11.5227633 0,12.1868261 C0,12.8508887 0.616796945,13.2051852 0.881250079,13.3254978 L6.66250161,15.9657331 C7.07031424,16.1524517 7.59922073,16.2493275 8.12500164,16.2493275 C8.65078314,16.2493275 9.17500215,16.1524523 9.58515853,15.9653434 L15.3632839,13.3258887 C15.6296909,13.2055763 16.2500033,12.8532325 16.2500033,12.1868261 C16.2500033,11.5204196 15.6339875,11.1684654 15.3656283,11.0461998 Z"></path>
            </g>
        </g>
    </g>
</svg>