<?xml version="1.0" encoding="UTF-8"?>
<svg width="18px" height="18px" viewBox="0 0 18 18" version="1.1"
     xmlns="http://www.w3.org/2000/svg">
    <title>Icon/albums Copy@3x</title>
    <g id="Page-1" stroke="none" stroke-width="1" fill="none" fill-rule="evenodd">
        <g id="Icon/albums-Copy" transform="translate(0.2554, 0.9248)" fill="#C0C2CC" fill-rule="nonzero">
            <g id="Vector">
                <path d="M13.4586309,1.34586078 L4.03760587,1.34586078 C3.85913366,1.34586078 3.68797123,1.27496284 3.56177232,1.14876391 C3.43557341,1.02256499 3.36467568,0.851402627 3.36467568,0.672930389 C3.36467568,0.494458151 3.43557341,0.323295792 3.56177232,0.197096867 C3.68797123,0.0708979422 3.85913366,0 4.03760587,0 L13.4586309,0 C13.6371031,0 13.8082652,0.0708979422 13.9344641,0.197096867 C14.060663,0.323295792 14.1315611,0.494458151 14.1315611,0.672930389 C14.1315611,0.851402627 14.060663,1.02256499 13.9344641,1.14876391 C13.8082652,1.27496284 13.6371031,1.34586078 13.4586309,1.34586078 Z"></path>
                <path d="M14.8044553,3.36467929 L2.69170763,3.36467929 C2.51323538,3.36467929 2.34207286,3.29378133 2.21587391,3.16758235 C2.08967497,3.04138336 2.01877711,2.87022082 2.01877711,2.6917485 C2.01877711,2.51327619 2.08967497,2.34211381 2.21587391,2.21591482 C2.34207286,2.08971584 2.51323538,2.01881787 2.69170763,2.01881787 L14.8044553,2.01881787 C14.9829276,2.01881787 15.1540896,2.08971584 15.2802886,2.21591482 C15.4064875,2.34211381 15.4773855,2.51327619 15.4773855,2.6917485 C15.4773855,2.87022082 15.4064875,3.04138336 15.2802886,3.16758235 C15.1540896,3.29378133 14.9829276,3.36467929 14.8044553,3.36467929 Z"></path>
                <path d="M15.6090414,16.1503839 L1.88714928,16.1503839 C1.38681703,16.1498273 0.907136504,15.9508242 0.553347955,15.5970357 C0.199559406,15.2432472 0.00055660557,14.7635662 0,14.2632339 L0,5.92478538 C0.00055660557,5.42445313 0.199559406,4.94477247 0.553347955,4.59098395 C0.907136504,4.23719542 1.38681703,4.03819268 1.88714928,4.03763607 L15.6090414,4.03763607 C16.1093737,4.03819268 16.5890547,4.23719542 16.9428433,4.59098395 C17.2966318,4.94477247 17.4956349,5.42445313 17.4961915,5.92478538 L17.4961915,14.2632339 C17.4956349,14.7635662 17.2966318,15.2432472 16.9428433,15.5970357 C16.5890547,15.9508242 16.1093737,16.1498273 15.6090414,16.1503839 Z"></path>
            </g>
        </g>
    </g>
</svg>