<?xml version="1.0" encoding="UTF-8"?>
<svg width="18px" height="17px" viewBox="0 0 18 17" version="1.1"
     xmlns="http://www.w3.org/2000/svg">
    <title>Icon/cog/outline Copy@3x</title>
    <g id="Page-1" stroke="none" stroke-width="1" fill="none" fill-rule="evenodd">
        <g id="Icon/cog/outline-Copy" transform="translate(0.9687, -0.0081)" fill="#D6D8E3" fill-rule="nonzero">
            <path d="M15.9648914,7.51009652 L14.9461406,7.34603409 C14.8803609,7.33495878 14.8198509,7.30312539 14.7734624,7.25519062 C14.7270739,7.20725584 14.6972411,7.14573486 14.6883279,7.07962746 C14.6687966,6.95462742 14.6492661,6.82923696 14.6219223,6.70814318 C14.6087037,6.64312808 14.6163084,6.57560045 14.6436566,6.515154 C14.6710047,6.45470756 14.7167053,6.40441592 14.7742659,6.37142391 L15.6762189,5.87064281 C15.7444919,5.83573414 15.7976573,5.77708148 15.8257133,5.70571849 C15.8537693,5.6343555 15.854782,5.55520071 15.8285624,5.48314275 L15.6723124,5.05345511 C15.646174,4.98119919 15.5941457,4.92121762 15.5263073,4.88513333 C15.4584688,4.84904903 15.3796504,4.83943113 15.3051251,4.85814255 L14.2937976,5.05345511 C14.228047,5.066182 14.1599461,5.05744948 14.0995341,5.02854453 C14.039122,4.99963958 13.9895938,4.95209136 13.9582496,4.89290816 C13.8996559,4.78353312 13.8371563,4.67402773 13.7707501,4.56439228 C13.7356903,4.50738365 13.7194639,4.44078585 13.7243717,4.37403942 C13.7292795,4.30729299 13.755073,4.24378437 13.7980943,4.19251699 L14.4734841,3.41361039 C14.5258662,3.35787766 14.5559904,3.2848697 14.5581501,3.20841478 C14.5603099,3.13195986 14.5343559,3.05736763 14.4852036,2.99876669 L14.1926246,2.64720408 C14.1438691,2.58807952 14.0748123,2.54926823 13.9989584,2.5383597 C13.9231045,2.52745118 13.8459089,2.54522991 13.7824683,2.5882196 L12.8961413,3.12064154 C12.8391657,3.15440559 12.7729362,3.16919564 12.7070097,3.16287681 C12.6410833,3.15655798 12.5788686,3.12945728 12.5293438,3.08548552 C12.4355938,3.00306362 12.3379378,2.92103229 12.2402815,2.84251664 C12.1883378,2.80124717 12.1508754,2.74451753 12.1333186,2.68054037 C12.1157617,2.61656322 12.1190215,2.54865846 12.1426252,2.48665698 L12.5098125,1.51985978 C12.541059,1.44971849 12.5453876,1.37052838 12.5219719,1.29739938 C12.4985562,1.22427039 12.4490356,1.16232213 12.3828594,1.12337529 L11.9844214,0.892515998 C11.9179252,0.854756168 11.8398925,0.842688527 11.7650965,0.858597964 C11.6903006,0.874507401 11.6239341,0.917289517 11.5785626,0.978844116 L10.928562,1.79290696 C10.8922533,1.8441405 10.8397388,1.88164348 10.7794955,1.89936209 C10.7192523,1.91708069 10.6547957,1.91398099 10.5965307,1.89056325 C10.5965307,1.89056325 10.3777812,1.8007192 10.2137187,1.74564106 C10.1507921,1.72467089 10.0961703,1.68422239 10.0577571,1.63014898 C10.019344,1.57607557 9.99913189,1.5111823 10.0000467,1.44485983 L10.0156715,0.411656411 C10.020273,0.334808182 9.99659322,0.258932474 9.94909965,0.198342176 C9.90160608,0.137751879 9.83358135,0.0966359203 9.75785814,0.082750115 L9.30512387,0.00462508609 C9.22933949,-0.00850052691 9.15137152,0.00653302528 9.08590036,0.0468949245 C9.0204292,0.0872568237 8.97197209,0.150162143 8.94965486,0.223765801 L8.61371829,1.20228174 C8.59216454,1.26535364 8.55100845,1.31988175 8.49626256,1.35790169 C8.44151667,1.39592163 8.37604892,1.41544121 8.30942106,1.4136097 L7.92660841,1.4136097 C7.86007323,1.41501462 7.79480011,1.39532672 7.74013885,1.35736555 C7.68547758,1.31940438 7.64423289,1.2651178 7.62231178,1.20228174 L7.28637402,0.223765801 C7.26405679,0.150162143 7.21560027,0.0872568237 7.15012911,0.0468949245 C7.08465796,0.00653302528 7.00668939,-0.00850052691 6.930905,0.00462508609 L6.47817074,0.082750115 C6.40244752,0.0966359203 6.33442339,0.137751879 6.28692982,0.198342176 C6.23943625,0.258932474 6.21575703,0.334808182 6.22035858,0.411656411 L6.23598334,1.44485983 C6.23692826,1.51134526 6.21664183,1.57639915 6.17807385,1.63056293 C6.13950587,1.68472671 6.08466685,1.72517658 6.02152999,1.74603177 C5.93168623,1.78118803 5.73637384,1.8557974 5.64262383,1.89095366 C5.53324882,1.93001617 5.40434245,1.89876631 5.29887369,1.7772819 L4.65395198,0.982750307 C4.60835586,0.921454365 4.54188594,0.878983895 4.46710452,0.863365443 C4.3923231,0.847746991 4.31441087,0.86006263 4.2480926,0.897984726 L3.84965519,1.12884432 C3.7833137,1.16704967 3.73344578,1.22844085 3.70964804,1.30120425 C3.68585031,1.37396764 3.68980423,1.45296146 3.72074881,1.52298486 L4.0879361,2.48978205 C4.11117194,2.55182928 4.1142419,2.61962571 4.09670812,2.68351882 C4.07917434,2.74741193 4.04193055,2.80414513 3.99027984,2.84564172 C3.89262359,2.92376674 3.79496757,3.0061887 3.70121756,3.08861059 C3.65169273,3.13258235 3.58947864,3.15968306 3.5235522,3.16600189 C3.45762575,3.17232072 3.39139623,3.15753067 3.33442069,3.12376662 L2.4609831,2.58314158 C2.39721132,2.54117865 2.32028502,2.52401044 2.24472283,2.534877 C2.16916064,2.54574357 2.10018951,2.58389331 2.05082682,2.64212606 L1.75824876,2.99368868 C1.70909646,3.05228961 1.68314216,3.12688154 1.68530191,3.20333646 C1.68746165,3.27979138 1.71758526,3.35279994 1.76996733,3.40853267 L2.44535804,4.18743927 C2.48927261,4.23825635 2.5156468,4.30186927 2.52057195,4.36885143 C2.52549711,4.43583359 2.50871133,4.50262012 2.47270197,4.55931396 C2.40629571,4.66348067 2.34379559,4.77298605 2.28520184,4.88782984 C2.25334454,4.94655319 2.2037378,4.99370233 2.14347271,5.02253698 C2.08320762,5.05137162 2.01536949,5.06041564 1.94965508,5.04837679 L0.938326687,4.85306423 C0.863819781,4.83489171 0.785232071,4.84475156 0.717523649,4.88076669 C0.649815226,4.91678182 0.597714204,4.97643729 0.571139213,5.04837679 L0.414889202,5.47806443 C0.388669629,5.55012239 0.389683192,5.62927778 0.417739198,5.70064077 C0.445795204,5.77200376 0.498960051,5.83065583 0.567233022,5.86556449 L1.46801435,6.3667366 C1.52617287,6.39909 1.5723821,6.44929255 1.59981543,6.50992727 C1.62724876,6.57056199 1.63445121,6.63841265 1.62035817,6.70345527 C1.59692067,6.82845531 1.57348299,6.94994011 1.55395174,7.07494015 C1.54457439,7.14086437 1.51458766,7.202134 1.46828108,7.24998415 C1.4219745,7.29783429 1.36172068,7.329813 1.29613928,7.34134618 L0.277389193,7.50540861 C0.201577272,7.51474915 0.131714267,7.5512333 0.0807264756,7.60810983 C0.0297386845,7.66498637 0.0010773633,7.73840603 2.21813596e-05,7.81478424 L2.21813596e-05,8.27259694 C-0.000901876955,8.34953741 0.0270751622,8.42402859 0.0784375081,8.48132294 C0.129799854,8.53861728 0.200802886,8.5745371 0.277389193,8.58197137 L1.29613928,8.7460344 C1.36191898,8.7571097 1.42242875,8.7889431 1.46881723,8.83687787 C1.5152057,8.88481265 1.54503852,8.94633362 1.55395174,9.01244103 C1.57348299,9.13744107 1.59301442,9.26283093 1.62035817,9.38392471 C1.63357681,9.44893981 1.62597179,9.51646744 1.59862364,9.57691389 C1.57127548,9.63736033 1.52557493,9.68765138 1.46801435,9.72064338 L0.566061195,10.2222071 C0.497788223,10.2571158 0.444623377,10.3157678 0.416567371,10.3871308 C0.388511365,10.4584938 0.387497802,10.5376486 0.413717375,10.6097066 L0.569967386,11.0393942 C0.59610578,11.1116501 0.648134878,11.1716311 0.715973332,11.2077154 C0.783811786,11.2437997 0.862629597,11.2534182 0.937154859,11.2347068 L1.94848296,11.0393942 C2.01423352,11.0266673 2.0823335,11.0354004 2.14274553,11.0643054 C2.20315757,11.0932103 2.25268578,11.1407585 2.28403001,11.1999417 C2.34262376,11.3093168 2.40512359,11.4188222 2.47152985,11.5284576 C2.50658963,11.5854663 2.52281575,11.6520635 2.51790792,11.7188099 C2.5130001,11.7855563 2.48720746,11.8490649 2.44418621,11.9003323 L1.7687955,12.6800197 C1.71641343,12.7357525 1.68628982,12.808761 1.68413008,12.8852159 C1.68197034,12.9616709 1.70792463,13.0362625 1.75707693,13.0948634 L2.04965499,13.4464261 C2.09841054,13.5055506 2.16746759,13.5443628 2.24332153,13.5552713 C2.31917546,13.5661798 2.39637072,13.5484005 2.45981127,13.5054108 L3.34613956,12.9729886 C3.4031151,12.9392245 3.46934403,12.9244351 3.53527047,12.9307539 C3.60119692,12.9370727 3.6634116,12.9641729 3.71293643,13.0081446 C3.80668644,13.0905665 3.90434246,13.1725978 4.00199871,13.2511135 C4.05394242,13.292383 4.0914042,13.3491132 4.10896105,13.4130904 C4.12651789,13.4770675 4.12325869,13.5449721 4.09965497,13.6069736 L3.73246768,14.5737708 C3.70172094,14.6440029 3.69786484,14.7230869 3.72163335,14.795977 C3.74540186,14.8688671 3.79513639,14.9304765 3.86137406,14.9690832 L4.25981147,15.1999428 C4.32630762,15.2377027 4.40434098,15.2497697 4.47913691,15.2338603 C4.55393284,15.2179508 4.62029933,15.1751696 4.66567085,15.113615 L5.32153001,14.3073642 C5.40356126,14.2058016 5.53637365,14.1628326 5.64184241,14.2058014 C5.77465493,14.2604889 5.86449904,14.2917395 6.02856155,14.3468177 C6.09169842,14.3676729 6.14653743,14.4081224 6.18510541,14.4622862 C6.22367339,14.51645 6.24395982,14.5815039 6.2430149,14.6479893 L6.22738954,15.6811933 C6.222788,15.7580415 6.24646721,15.8339161 6.29396078,15.8945064 C6.34145436,15.9550967 6.40947908,15.9962132 6.4852023,16.010099 L6.93793656,16.088224 C7.01372095,16.1013496 7.09168952,16.0863166 7.15716068,16.0459547 C7.22263183,16.0055928 7.27108835,15.9426875 7.29340558,15.8690839 L7.62934274,14.892521 C7.6508965,14.8294491 7.69205199,14.7749204 7.74679788,14.7369004 C7.80154376,14.6988805 7.86701211,14.6793612 7.93363997,14.6811927 L8.31645202,14.6811927 C8.3829872,14.6797878 8.44826033,14.6994757 8.50292159,14.7374369 C8.55758286,14.775398 8.59882815,14.829685 8.62074925,14.892521 L8.95668702,15.8690839 C8.97900425,15.9426875 9.02746017,16.0055928 9.09293132,16.0459547 C9.15840248,16.0863166 9.23637165,16.1013496 9.31215603,16.088224 L9.76489029,16.010099 C9.84061351,15.9962132 9.90863705,15.9550967 9.95613062,15.8945064 C10.0036242,15.8339161 10.027304,15.7580415 10.0227025,15.6811933 L10.0070777,14.6479893 C10.0061328,14.5815039 10.0264192,14.51645 10.0649872,14.4622862 C10.1035552,14.4081224 10.1583948,14.3676729 10.2215316,14.3468177 C10.3855941,14.2917395 10.4949682,14.2487704 10.5965307,14.2097079 C10.6980932,14.1706454 10.8230939,14.1706456 10.9207502,14.2917394 L11.5848127,15.1097085 C11.6304085,15.1714667 11.6971401,15.2142815 11.7722825,15.2299872 C11.8474248,15.2456928 11.9257199,15.2331902 11.9922344,15.1948645 L12.3906724,14.9640049 C12.4573621,14.9258367 12.5074853,14.8642445 12.5313072,14.7911907 C12.555129,14.718137 12.5509486,14.6388368 12.5195782,14.5686925 L12.1523909,13.6018953 C12.1291852,13.5397825 12.1261306,13.4719388 12.14366,13.4079918 C12.1611893,13.3440447 12.1984122,13.2872426 12.2500471,13.2456454 C12.3477034,13.1675203 12.4453594,13.0854894 12.5391094,13.0030675 C12.5886342,12.9590957 12.6508489,12.9319944 12.7167754,12.9256756 C12.7827018,12.9193568 12.8489313,12.9341462 12.9059069,12.9679103 L13.7891095,13.5018953 C13.8528813,13.5438583 13.9298073,13.5610262 14.0053695,13.5501596 C14.0809317,13.5392931 14.1499031,13.5011433 14.1992658,13.4429106 L14.4918435,13.091348 C14.5409958,13.032747 14.566951,12.9581554 14.5647913,12.8817005 C14.5626315,12.8052455 14.5325073,12.732237 14.4801253,12.6765043 L13.8047343,11.8975977 C13.7608197,11.8467806 13.7344455,11.7831671 13.7295203,11.7161849 C13.7245952,11.6492027 13.7413819,11.5824168 13.7773912,11.525723 C13.8437975,11.4202542 13.906297,11.3107488 13.9648908,11.1972071 C13.9967481,11.1384837 14.0463548,11.0913352 14.1066199,11.0625005 C14.166885,11.0336659 14.2347231,11.0246207 14.3004375,11.0366595 L15.3117663,11.2319721 C15.3862732,11.2501446 15.4648609,11.2402854 15.5325693,11.2042702 C15.6002777,11.1682551 15.6523786,11.108599 15.6789536,11.0366595 L15.8352036,10.6069719 C15.8614232,10.5349139 15.8604093,10.4557591 15.8323533,10.3843962 C15.8042973,10.3130332 15.751133,10.2543811 15.6828601,10.2194724 L14.780907,9.71869074 C14.7227485,9.68633733 14.676539,9.63613478 14.6491056,9.57550007 C14.6216723,9.51486535 14.6144693,9.44701469 14.6285623,9.38197206 C14.6519998,9.25697202 14.6754378,9.13548723 14.694969,9.01048719 C14.7043464,8.94456297 14.7343334,8.88329393 14.78064,8.83544378 C14.8269466,8.78759364 14.8872004,8.75561374 14.9527818,8.74408056 L15.9715313,8.58001872 C16.0473433,8.57067819 16.1172067,8.53419404 16.1681945,8.4773175 C16.2191823,8.42044097 16.2478435,8.34702131 16.2488753,8.2706431 L16.2488753,7.81204958 C16.2446193,7.73635459 16.2138122,7.66458319 16.1618716,7.60935617 C16.1099311,7.55412914 16.0401833,7.51898281 15.9648914,7.51009652 L15.9648914,7.51009652 Z M8.125046,2.42142265 C9.37269789,2.42089097 10.5850299,2.83569392 11.5708486,3.60041439 C12.5566672,4.36513486 13.2598777,5.43625832 13.5695784,6.6448615 C13.5926166,6.7370286 13.5943402,6.83323485 13.5746186,6.9261681 C13.5548969,7.01910135 13.5142483,7.10631568 13.4557633,7.18118248 C13.3972784,7.25604929 13.3224966,7.31659854 13.2371001,7.35822741 C13.1517036,7.39985629 13.0579406,7.42146944 12.9629378,7.42142445 L8.8519986,7.42142445 C8.7415877,7.42143839 8.6331436,7.39220314 8.5377009,7.33669403 C8.44225821,7.28118493 8.36322463,7.20138343 8.30864024,7.10540886 L6.27348361,3.52298555 C6.22609393,3.43969952 6.19848938,3.34663183 6.19280395,3.25097608 C6.18711851,3.15532034 6.20350405,3.05963847 6.24069449,2.9713253 C6.27788494,2.88301214 6.33488422,2.8044331 6.40728651,2.74166168 C6.47968879,2.67889025 6.5655551,2.63360743 6.6582489,2.60931339 C7.13703431,2.48369875 7.6300574,2.42054447 8.125046,2.42142265 L8.125046,2.42142265 Z M2.5000456,8.04642465 C2.49934367,7.29325378 2.64990493,6.5476115 2.94279907,5.85372402 C3.2356932,5.15983655 3.66495462,4.53183592 4.20512361,4.00697006 C4.27333232,3.93944447 4.35617701,3.88853562 4.44723352,3.85819026 C4.53829004,3.8278449 4.63511175,3.81887881 4.73019229,3.83198685 C4.82527282,3.8450949 4.91605739,3.87992504 4.99550629,3.93377672 C5.07495519,3.9876284 5.14093425,4.05905428 5.18832733,4.14251702 L7.22895209,7.73392455 C7.28286927,7.82833048 7.31122856,7.93516778 7.31122856,8.0438855 C7.31122856,8.15260321 7.28286927,8.25944051 7.22895209,8.35384644 L5.17153014,11.9358793 C5.1237673,12.0191005 5.05748421,12.0902073 4.97781742,12.1436886 C4.89815063,12.19717 4.80723945,12.2315896 4.7121291,12.244281 C4.61701875,12.2569725 4.52026311,12.2475943 4.42936047,12.2168736 C4.33845783,12.1861529 4.25584966,12.1349143 4.18793661,12.0671288 C3.65303268,11.543104 3.22818961,10.9175121 2.93834153,10.2270685 C2.64849346,9.53662479 2.49947959,8.79523977 2.5000456,8.04642465 L2.5000456,8.04642465 Z M8.125046,13.6714265 C7.62144997,13.6727135 7.11987555,13.6077014 6.63324892,13.4780666 C6.54057998,13.4534373 6.45482058,13.4078167 6.3826072,13.3447345 C6.31039383,13.2816523 6.25366335,13.2028006 6.21680555,13.1142814 C6.17994775,13.0257623 6.16395068,12.9299492 6.17005345,12.8342575 C6.17615621,12.7385659 6.20419499,12.645561 6.25199911,12.5624412 L8.30590558,8.98626862 C8.36083884,8.89112112 8.43988212,8.81213558 8.53506996,8.75727227 C8.63025779,8.70240895 8.73822666,8.67360658 8.84809331,8.67376852 L12.9648904,8.67376852 C13.0598602,8.67378289 13.1535778,8.69543927 13.2389252,8.7370937 C13.3242726,8.77874814 13.3990053,8.83930578 13.4574466,8.91416486 C13.5158879,8.98902394 13.5565014,9.07621616 13.5762017,9.16912023 C13.595902,9.2620243 13.5941714,9.35819636 13.5711413,9.45033146 C13.2608093,10.6586923 12.5571426,11.7294046 11.5710739,12.4936753 C10.5850051,13.257946 9.37261973,13.6723039 8.125046,13.6714265 L8.125046,13.6714265 Z"
                  id="Vector"></path>
        </g>
    </g>
</svg>