<?xml version="1.0" encoding="UTF-8"?>
<svg width="14px" height="18px" viewBox="0 0 14 18" version="1.1"
     xmlns="http://www.w3.org/2000/svg">
    <title>Icon/document-fill Copy@3x</title>
    <g id="Page-1" stroke="none" stroke-width="1" fill="none" fill-rule="evenodd">
        <g id="Icon/document-fill-Copy" transform="translate(0.1631, 0.2534)" fill="#C0C2CC" fill-rule="nonzero">
            <path d="M13.593755,7.5 L8.12500299,7.5 C7.62772189,7.5 7.15080789,7.30245641 6.79917705,6.95082569 C6.44754621,6.59919497 6.2500023,6.12228113 6.2500023,5.62500019 L6.2500023,0.156250005 C6.2500023,0.114809926 6.23354041,0.0750671562 6.20423784,0.0457645968 C6.17493527,0.0164620374 6.13519234,0 6.09375224,0 L2.5,0 C1.83695943,0 1.20107431,0.263392152 0.732233198,0.732233102 C0.263392091,1.20107405 0,1.83695881 0,2.5 L0,15 C0,15.6630418 0.263392091,16.2989261 0.732233198,16.767767 C1.20107431,17.236608 1.83695943,17.5 2.5,17.5 L11.2500041,17.5 C11.9130456,17.5 12.5489302,17.236608 13.0177713,16.767767 C13.4866124,16.2989261 13.7500051,15.6630418 13.7500051,15 L13.7500051,7.65625026 C13.7500051,7.61481018 13.7335432,7.57506726 13.7042406,7.5457647 C13.674938,7.51646214 13.6351951,7.5 13.593755,7.5 Z M10,13.7500005 L3.75000138,13.7500005 C3.58424101,13.7500005 3.42526988,13.6841529 3.3080596,13.5669427 C3.19084932,13.4497324 3.12500115,13.2907608 3.12500115,13.1250004 C3.12500115,12.9592401 3.19084932,12.8002685 3.3080596,12.6830582 C3.42526988,12.565848 3.58424101,12.5 3.75000138,12.5 L10,12.5 C10.1657641,12.5 10.3247358,12.565848 10.4419461,12.6830582 C10.5591563,12.8002685 10.6250039,12.9592401 10.6250039,13.1250004 C10.6250039,13.2907608 10.5591563,13.4497324 10.4419461,13.5669427 C10.3247358,13.6841529 10.1657641,13.7500005 10,13.7500005 Z M10,10.6250004 L3.75000138,10.6250004 C3.58424101,10.6250004 3.42526988,10.5591528 3.3080596,10.4419426 C3.19084932,10.3247323 3.12500115,10.1657607 3.12500115,10 C3.12500115,9.83424002 3.19084932,9.67526835 3.3080596,9.55805811 C3.42526988,9.44084787 3.58424101,9.37500032 3.75000138,9.37500032 L10,9.37500032 C10.1657641,9.37500032 10.3247358,9.44084787 10.4419461,9.55805811 C10.5591563,9.67526835 10.6250039,9.83424002 10.6250039,10 C10.6250039,10.1657607 10.5591563,10.3247323 10.4419461,10.4419426 C10.3247358,10.5591528 10.1657641,10.6250004 10,10.6250004 Z"
                  id="Vector"></path>
            <path d="M13.2519034,6.11728305 L7.63352206,0.498902769 C7.62259599,0.488041248 7.6087033,0.480652129 7.59358959,0.477664241 C7.57847588,0.474676352 7.5628152,0.476180672 7.54857807,0.482110041 C7.53434093,0.487996949 7.52216209,0.497961283 7.51357202,0.510750437 C7.50498196,0.523539591 7.50036443,0.538582667 7.50029975,0.553988751 L7.50029975,5.62541609 C7.50029975,5.79120007 7.56615671,5.95019384 7.68338371,6.06742082 C7.80061071,6.18464779 7.95960511,6.25050534 8.12538913,6.25050534 L13.1968173,6.25050534 C13.2122234,6.25044065 13.2272668,6.24582313 13.2400559,6.23723306 C13.2528451,6.228643 13.2628096,6.21646356 13.2686965,6.20222643 C13.2746262,6.1879893 13.2761303,6.17232982 13.2731424,6.15721611 C13.2701545,6.14210241 13.262765,6.12820912 13.2519034,6.11728305 L13.2519034,6.11728305 Z"
                  id="Vector"></path>
        </g>
    </g>
</svg>