<svg width="16" height="16" viewBox="0 0 16 16" fill="none" xmlns="http://www.w3.org/2000/svg">
    <g clip-path="url(#clip0_4_5601)">
        <path d="M7.7295 13.0961C7.65311 11.797 7.10262 10.5711 6.18245 9.65096C5.26228 8.73079 4.03641 8.1803 2.73734 8.1039C2.62894 8.09608 2.52006 8.10986 2.41704 8.14446C2.31401 8.17907 2.21889 8.23379 2.13719 8.30547C2.05549 8.37714 1.98885 8.46433 1.94113 8.56197C1.89341 8.65962 1.86557 8.76577 1.85922 8.87427C1.85287 8.98276 1.86814 9.09144 1.90414 9.19398C1.94014 9.29653 1.99616 9.3909 2.06894 9.47161C2.14172 9.55233 2.22981 9.61778 2.3281 9.66416C2.42638 9.71054 2.5329 9.73694 2.64148 9.74181C3.53925 9.79468 4.38641 10.1752 5.02233 10.8111C5.65825 11.447 6.03872 12.2942 6.0916 13.1919C6.10438 13.4092 6.20296 13.6125 6.36563 13.7571C6.52831 13.9017 6.74176 13.9757 6.95903 13.963C7.17631 13.9502 7.3796 13.8516 7.5242 13.6889C7.66879 13.5262 7.74284 13.3128 7.73006 13.0955L7.7295 13.0961Z"
              fill="#D6D8E3"/>
        <path d="M8.5627 7.26889C7.00749 5.70938 4.91602 4.80175 2.71471 4.73104C2.60567 4.72505 2.49653 4.74088 2.3937 4.77762C2.29086 4.81436 2.19639 4.87126 2.11583 4.94499C2.03528 5.01872 1.97025 5.10779 1.92457 5.20698C1.87889 5.30617 1.85348 5.41349 1.84982 5.52263C1.84616 5.63177 1.86433 5.74054 1.90326 5.84257C1.9422 5.9446 2.00111 6.03783 2.07654 6.11678C2.15198 6.19574 2.24242 6.25885 2.34257 6.30239C2.44272 6.34594 2.55055 6.36905 2.65974 6.37037C4.44453 6.4304 6.13985 7.16625 7.4026 8.429C8.66534 9.69175 9.4012 11.3871 9.46123 13.1719C9.46255 13.281 9.48566 13.3889 9.52921 13.489C9.57275 13.5892 9.63585 13.6796 9.71481 13.7551C9.79377 13.8305 9.887 13.8894 9.98903 13.9283C10.0911 13.9673 10.1998 13.9854 10.309 13.9818C10.4181 13.9781 10.5254 13.9527 10.6246 13.907C10.7238 13.8613 10.8129 13.7963 10.8866 13.7158C10.9603 13.6352 11.0172 13.5407 11.054 13.4379C11.0907 13.3351 11.1065 13.2259 11.1006 13.1169C11.0298 10.9156 10.1222 8.82411 8.5627 7.26889V7.26889Z"
              fill="#D6D8E3"/>
        <path d="M14.4624 12.7343C14.2939 9.77514 13.0425 6.98142 10.9466 4.88557C8.85076 2.78973 6.05704 1.5383 3.09786 1.36978C2.98888 1.36122 2.87929 1.37451 2.77553 1.4089C2.67176 1.44329 2.57591 1.49807 2.49362 1.57002C2.41132 1.64197 2.34424 1.72965 2.29631 1.82789C2.24837 1.92614 2.22056 2.03298 2.21451 2.14212C2.20845 2.25127 2.22427 2.36053 2.26104 2.46348C2.2978 2.56642 2.35478 2.66098 2.42861 2.7416C2.50243 2.82221 2.59163 2.88726 2.69096 2.93292C2.79028 2.97857 2.89773 3.00391 3.00699 3.00745C5.56314 3.15357 7.97624 4.23482 9.78666 6.04524C11.5971 7.85566 12.6783 10.2688 12.8245 12.8249C12.8366 13.0422 12.9345 13.2457 13.0967 13.3907C13.2589 13.5358 13.472 13.6104 13.6893 13.5983C13.9065 13.5862 14.11 13.4883 14.2551 13.3261C14.4001 13.1639 14.4748 12.9507 14.4627 12.7335L14.4624 12.7343Z"
              fill="#D6D8E3"/>
        <path d="M3.65535 13.9473C3.16683 14.4358 2.37479 14.4358 1.88628 13.9473C1.39776 13.4588 1.39776 12.6667 1.88628 12.1782C2.37479 11.6897 3.16683 11.6897 3.65535 12.1782C4.14386 12.6667 4.14386 13.4588 3.65535 13.9473Z"
              fill="#D6D8E3"/>
    </g>
    <defs>
        <clipPath id="clip0_4_5601">
            <rect width="16" height="16" fill="white"/>
        </clipPath>
    </defs>
</svg>
