<?xml version="1.0" encoding="UTF-8"?>
<svg width="17px" height="12px" viewBox="0 0 17 12" version="1.1"
     xmlns="http://www.w3.org/2000/svg">
    <title>Icon/list/fill Copy@3x</title>
    <g id="Page-1" stroke="none" stroke-width="1" fill="none" fill-rule="evenodd" stroke-linecap="round"
       stroke-linejoin="round">
        <g id="Icon/list/fill-Copy" transform="translate(0.5566, 1.0707)" fill="#D6D8E3" fill-rule="nonzero"
           stroke="#D6D8E3" stroke-width="1.00189149">
            <g id="Vector" transform="translate(-0, 0)">
                <path d="M0.630622027,1.26124391 C0.978904965,1.26124391 1.26124405,0.97890489 1.26124405,0.630621953 C1.26124405,0.282339053 0.978904965,0 0.630622027,0 C0.28233909,0 0,0.282339053 0,0.630621953 C0,0.97890489 0.28233909,1.26124391 0.630622027,1.26124391 Z"></path>
                <path d="M0.630622027,5.63613932 C0.978904965,5.63613932 1.26124405,5.35379993 1.26124405,5.005517 C1.26124405,4.6572341 0.978904965,4.37489527 0.630622027,4.37489527 C0.28233909,4.37489527 0,4.6572341 0,5.005517 C0,5.35379993 0.28233909,5.63613932 0.630622027,5.63613932 Z"></path>
                <path d="M0.630622027,10.0114917 C0.978904965,10.0114917 1.26124405,9.72915287 1.26124405,9.38086993 C1.26124405,9.03258703 0.978904965,8.7502482 0.630622027,8.7502482 C0.28233909,8.7502482 0,9.03258703 0,9.38086993 C0,9.72915287 0.28233909,10.0114917 0.630622027,10.0114917 Z"></path>
                <path d="M14.9998439,0.624897949 L3.74984476,0.624897949 M14.9998439,4.99979381 L3.74984476,4.99979381 M3.74984476,9.37537438 L14.9998439,9.37537438"></path>
            </g>
        </g>
    </g>
</svg>