<?xml version="1.0" encoding="UTF-8"?>
<svg width="17px" height="18px" viewBox="0 0 17 18" version="1.1"
     xmlns="http://www.w3.org/2000/svg">
    <title>Icon/create/outline Copy@3x</title>
    <g id="Page-1" stroke="none" stroke-width="1" fill="none" fill-rule="evenodd">
        <g id="Icon/create/outline-Copy" transform="translate(0.5632, 0.9168)" fill-rule="nonzero">
            <path d="M12.5,6.87523369 L12.5,14.0627347 C12.5,14.2679252 12.4595861,14.4711066 12.3810631,14.6606779 C12.3025401,14.8502491 12.1874476,15.0224977 12.0423561,15.1675892 C11.8972645,15.3126808 11.725016,15.4277733 11.5354447,15.5062962 C11.3458735,15.5848192 11.142692,15.6252332 10.9375016,15.6252332 L1.56250022,15.6252332 C1.14809939,15.6252332 0.75067136,15.4606149 0.45764572,15.1675892 C0.16462008,14.8745636 -1.13686838e-13,14.4771355 -1.13686838e-13,14.0627347 L-1.13686838e-13,4.68773338 C-1.13686838e-13,4.27333255 0.16462008,3.87590451 0.45764572,3.58287887 C0.75067136,3.28985323 1.14809939,3.12523315 1.56250022,3.12523315 L8.10468909,3.12523315"
                  id="Vector" stroke="#D6D8E3" stroke-width="1.00189149" stroke-linecap="round"
                  stroke-linejoin="round"></path>
            <path d="M15.4733174,0.206078039 C15.4159622,0.143057489 15.3464254,0.0923197862 15.2689086,0.0569311469 C15.1913917,0.0215425076 15.1075046,0.00223774629 15.0223166,0.000183256401 C14.9371286,-0.00187123349 14.8524078,0.013367214 14.7732751,0.0449779179 C14.6941424,0.0765886219 14.6222405,0.123915148 14.561914,0.184097555 L14.0763819,0.667274574 C14.0175388,0.726156218 13.9844837,0.80599367 13.9844837,0.889237615 C13.9844837,0.97248156 14.0175388,1.05231901 14.0763819,1.11120066 L14.5214857,1.55551933 C14.5506627,1.58483239 14.5853435,1.60809294 14.6235356,1.62396471 C14.6617278,1.63983649 14.7026782,1.64800683 14.7440371,1.64800683 C14.7853959,1.64800683 14.8263475,1.63983649 14.8645397,1.62396471 C14.9027318,1.60809294 14.9374126,1.58483239 14.9665896,1.55551933 L15.439954,1.08451012 C15.6793838,0.845472943 15.701757,0.456105422 15.4733174,0.206078039 Z"
                  id="Vector" fill="#D6D8E3"></path>
            <path d="M13.0988803,1.64040536 L6.0463132,8.68047372 C6.00355303,8.72306002 5.97247315,8.77593506 5.95606546,8.83401099 L5.62984745,9.80563393 C5.62203252,9.83199778 5.62147899,9.85998277 5.62824505,9.88663509 C5.6350111,9.91328742 5.64884574,9.93761824 5.66828958,9.95706208 C5.68773341,9.97650592 5.71206542,9.99034175 5.73871773,9.99710781 C5.76537005,10.0038739 5.79335443,10.0033191 5.81971828,9.99550422 L6.79055942,9.66928671 C6.84863534,9.65287902 6.90151103,9.62179973 6.94409732,9.57903954 L13.9841628,2.52568817 C14.0492951,2.45985884 14.0858283,2.37099235 14.0858283,2.27838716 C14.0858283,2.18578198 14.0492951,2.09691549 13.9841628,2.03108615 L13.5954351,1.64040536 C13.5295236,1.57467908 13.4402403,1.53776998 13.3471583,1.53776998 C13.2540762,1.53776998 13.1647917,1.57467908 13.0988803,1.64040536 L13.0988803,1.64040536 Z"
                  id="Vector" fill="#D6D8E3"></path>
        </g>
    </g>
</svg>